P3
61 44
255
28 5 31 23 5 31 23 9 34 23 13 37 22 14 37 27 24 43 21 18 35 10 9 23 11 11 23 12 12 22 12 12 22 20 20 28 12 19 25 14 21 27 18 25 31 25 32 38 31 38 44 33 38 44 29 32 37 25 26 30 39 39 41 34 30 29 28 20 18 31 20 16 47 32 25 62 43 36 63 43 32 58 36 25 43 27 37 37 21 31 29 13 23 28 15 25 39 25 38 50 36 49 48 34 47 39 25 38 33 17 30 43 25 39 43 23 35 42 20 32 48 25 35 50 23 32 51 24 31 64 34 42 71 35 35 78 47 45 73 45 44 76 56 55 63 52 50 40 34 34 38 38 38 28 32 33 24 30 30 26 30 33 32 31 36 41 36 40 51 40 46 60 43 51 64 43 50 65 42 50 54 45 46 28 5 31 23 5 31 23 9 34 23 13 37 22 14 37 27 24 43 21 18 35 10 9 23 11 11 23 12 12 22 12 12 22 20 20 28 12 19 25 14 21 27 18 25 31 25 32 38 31 38 44 33 38 44 29 32 37 25 26 30 39 39 41 34 30 29 28 20 18 31 20 16 47 32 25 62 43 36 63 43 32 58 36 25 43 27 37 37 21 31 29 13 23 28 15 25 39 25 38 50 36 49 48 34 47 39 25 38 33 17 30 43 25 39 43 23 35 42 20 32 48 25 35 50 23 32 51 24 31 64 34 42 71 35 35 78 47 45 73 45 44 76 56 55 63 52 50 40 34 34 38 38 38 28 32 33 24 30 30 26 30 33 32 31 36 41 36 40 51 40 46 60 43 51 64 43 50 65 42 50 54 45 46 28 5 31 23 5 31 23 9 34 23 13 37 22 14 37 27 24 43 21 18 35 10 9 23 11 11 23 12 12 22 12 12 22 20 20 28 12 19 25 14 21 27 18 25 31 25 32 38 31 38 44 33 38 44 29 32 37 25 26 30 39 39 41 34 30 29 28 20 18 31 20 16 47 32 25 62 43 36 63 43 32 58 36 25 43 27 37 37 21 31 29 13 23 28 15 25 39 25 38 50 36 49 48 34 47 39 25 38 33 17 30 43 25 39 43 23 35 42 20 32 48 25 35 50 23 32 51 24 31 64 34 42 71 35 35 78 47 45 73 45 44 76 56 55 63 52 50 40 34 34 38 38 38 28 32 33 24 30 30 26 30 33 32 31 36 41 36 40 51 40 46 60 43 51 64 43 50 65 42 50 54 45 46 28 5 31 23 5 31 23 9 34 23 13 37 22 14 37 27 24 43 21 18 35 10 9 23 11 11 23 12 12 22 12 12 22 20 20 28 12 19 25 14 21 27 18 25 31 25 32 38 31 38 44 33 38 44 29 32 37 25 26 30 39 39 41 34 30 29 28 20 18 31 20 16 47 32 25 62 43 36 63 43 32 58 36 25 43 27 37 37 21 31 29 13 23 28 15 25 39 25 38 50 36 49 48 34 47 39 25 38 33 17 30 43 25 39 43 23 35 42 20 32 48 25 35 50 23 32 51 24 31 64 34 42 71 35 35 78 47 45 73 45 44 76 56 55 63 52 50 40 34 34 38 38 38 28 32 33 24 30 30 26 30 33 32 31 36 41 36 40 51 40 46 60 43 51 64 43 50 65 42 50 54 45 46 28 5 31 23 5 31 23 9 34 23 13 37 22 14 37 27 24 43 21 18 35 10 9 23 11 11 23 12 12 22 12 12 22 20 20 28 12 19 25 14 21 27 18 25 31 25 32 38 31 38 44 33 38 44 29 32 37 25 26 30 39 39 41 34 30 29 28 20 18 31 20 16 47 32 25 62 43 36 63 43 32 58 36 25 43 27 37 37 21 31 29 13 23 28 15 25 39 25 38 50 36 49 48 34 47 39 25 38 33 17 30 43 25 39 43 23 35 42 20 32 48 25 35 50 23 32 51 24 31 64 34 42 71 35 35 78 47 45 73 45 44 76 56 55 63 52 50 40 34 34 38 38 38 28 32 33 24 30 30 26 30 33 32 31 36 41 36 40 51 40 46 60 43 51 64 43 50 65 42 50 54 45 46 28 5 31 23 5 31 23 9 34 23 13 37 22 14 37 27 24 43 21 18 35 10 9 23 11 11 23 12 12 22 12 12 22 20 20 28 12 19 25 14 21 27 18 25 31 25 32 38 31 38 44 33 38 44 29 32 37 25 26 30 39 39 41 34 30 29 28 20 18 31 20 16 47 32 25 62 43 36 63 43 32 58 36 25 43 27 37 37 21 31 29 13 23 28 15 25 39 25 38 50 36 49 48 34 47 39 25 38 33 17 30 43 25 39 43 23 35 42 20 32 48 25 35 50 23 32 51 24 31 64 34 42 71 35 35 78 47 45 73 45 44 76 56 55 63 52 50 40 34 34 38 38 38 28 32 33 24 30 30 26 30 33 32 31 36 41 36 40 51 40 46 60 43 51 64 43 50 65 42 50 54 45 46 28 5 31 23 5 31 23 9 34 23 13 37 22 14 37 27 24 43 21 18 35 10 9 23 11 11 23 12 12 22 12 12 22 20 20 28 12 19 25 14 21 27 18 25 31 25 32 38 31 38 44 33 38 44 29 32 37 25 26 30 39 39 41 34 30 29 28 20 18 31 20 16 47 32 25 62 43 36 63 43 32 58 36 25 43 27 37 37 21 31 29 13 23 28 15 25 39 25 38 50 36 49 48 34 47 39 25 38 33 17 30 43 25 39 43 23 35 42 20 32 48 25 35 50 23 32 51 24 31 64 34 42 71 35 35 78 47 45 73 45 44 76 56 55 63 52 50 40 34 34 38 38 38 28 32 33 24 30 30 26 30 33 32 31 36 41 36 40 51 40 46 60 43 51 64 43 50 65 42 50 54 45 46 28 5 31 23 5 31 23 9 34 23 13 37 22 14 37 27 24 43 21 18 35 10 9 23 11 11 23 12 12 22 12 12 22 20 20 28 12 19 25 14 21 27 18 25 31 25 32 38 31 38 44 33 38 44 29 32 37 25 26 30 39 39 41 34 30 29 28 20 18 31 20 16 47 32 25 62 43 36 63 43 32 58 36 25 43 27 37 37 21 31 29 13 23 28 15 25 39 25 38 50 36 49 48 34 47 39 25 38 33 17 30 43 25 39 43 23 35 42 20 32 48 25 35 50 23 32 51 24 31 64 34 42 71 35 35 78 47 45 73 45 44 76 56 55 63 52 50 40 34 34 38 38 38 28 32 33 24 30 30 26 30 33 32 31 36 41 36 40 51 40 46 60 43 51 64 43 50 65 42 50 54 45 46 28 5 31 23 5 31 23 9 34 23 13 37 22 14 37 27 24 43 21 18 35 10 9 23 11 11 23 12 12 22 12 12 22 20 20 28 12 19 25 14 21 27 18 25 31 25 32 38 31 38 44 33 38 44 29 32 37 25 26 30 39 39 41 34 30 29 28 20 18 31 20 16 47 32 25 62 43 36 63 43 32 58 36 25 43 27 37 37 21 31 29 13 23 28 15 25 39 25 38 50 36 49 48 34 47 39 25 38 33 17 30 43 25 39 43 23 35 42 20 32 48 25 35 50 23 32 51 24 31 64 34 42 71 35 35 78 47 45 73 45 44 76 56 55 63 52 50 40 34 34 38 38 38 28 32 33 24 30 30 26 30 33 32 31 36 41 36 40 51 40 46 60 43 51 64 43 50 65 42 50 54 45 46 28 5 31 23 5 31 23 9 34 23 13 37 22 14 37 27 24 43 21 18 35 10 9 23 11 11 23 12 12 22 12 12 22 20 20 28 12 19 25 14 21 27 18 25 31 25 32 38 31 38 44 33 38 44 29 32 37 25 26 30 39 39 41 34 30 29 28 20 18 31 20 16 47 32 25 62 43 36 63 43 32 58 36 25 43 27 37 37 21 31 29 13 23 28 15 25 39 25 38 50 36 49 48 34 47 39 25 38 33 17 30 43 25 39 43 23 35 42 20 32 48 25 35 50 23 32 51 24 31 64 34 42 71 35 35 78 47 45 73 45 44 76 56 55 63 52 50 40 34 34 38 38 38 28 32 33 24 30 30 26 30 33 32 31 36 41 36 40 51 40 46 60 43 51 64 43 50 65 42 50 54 45 46 28 5 31 23 5 31 23 9 34 23 13 37 22 14 37 27 24 43 21 18 35 10 9 23 11 11 23 12 12 22 12 12 22 20 20 28 12 19 25 14 21 27 18 25 31 25 32 38 31 38 44 33 38 44 29 32 37 25 26 30 39 39 41 34 30 29 28 20 18 31 20 16 47 32 25 62 43 36 63 43 32 58 36 25 43 27 37 37 21 31 29 13 23 28 15 25 39 25 38 50 36 49 48 34 47 39 25 38 33 17 30 43 25 39 43 23 35 42 20 32 48 25 35 50 23 32 51 24 31 64 34 42 71 35 35 78 47 45 73 45 44 76 56 55 63 52 50 40 34 34 38 38 38 28 32 33 24 30 30 26 30 33 32 31 36 41 36 40 51 40 46 60 43 51 64 43 50 65 42 50 54 45 46 28 5 31 23 5 31 23 9 34 23 13 37 22 14 37 27 24 43 21 18 35 10 9 23 11 11 23 12 12 22 12 12 22 20 20 28 12 19 25 14 21 27 18 25 31 25 32 38 31 38 44 33 38 44 29 32 37 25 26 30 39 39 41 34 30 29 28 20 18 31 20 16 47 32 25 62 43 36 63 43 32 58 36 25 43 27 37 37 21 31 29 13 23 28 15 25 39 25 38 50 36 49 48 34 47 39 25 38 33 17 30 43 25 39 43 23 35 42 20 32 48 25 35 50 23 32 51 24 31 64 34 42 71 35 35 78 47 45 73 45 44 76 56 55 63 52 50 40 34 34 38 38 38 28 32 33 24 30 30 26 30 33 32 31 36 41 36 40 51 40 46 60 43 51 64 43 50 65 42 50 54 45 46 28 5 31 23 5 31 23 9 34 23 13 37 22 14 37 27 24 43 21 18 35 10 9 23 11 11 23 12 12 22 12 12 22 20 20 28 12 19 25 14 21 27 18 25 31 25 32 38 31 38 44 33 38 44 29 32 37 25 26 30 39 39 41 34 30 29 28 20 18 31 20 16 47 32 25 62 43 36 63 43 32 58 36 25 43 27 37 37 21 31 29 13 23 28 15 25 39 25 38 50 36 49 48 34 47 39 25 38 33 17 30 43 25 39 43 23 35 42 20 32 48 25 35 50 23 32 51 24 31 64 34 42 71 35 35 78 47 45 73 45 44 76 56 55 63 52 50 40 34 34 38 38 38 28 32 33 24 30 30 26 30 33 32 31 36 41 36 40 51 40 46 60 43 51 64 43 50 65 42 50 54 45 46 28 5 31 23 5 31 23 9 34 23 13 37 22 14 37 27 24 43 21 18 35 10 9 23 11 11 23 12 12 22 12 12 22 20 20 28 12 19 25 14 21 27 18 25 31 25 32 38 31 38 44 33 38 44 29 32 37 25 26 30 39 39 41 34 30 29 28 20 18 31 20 16 47 32 25 62 43 36 63 43 32 58 36 25 43 27 37 37 21 31 29 13 23 28 15 25 39 25 38 50 36 49 48 34 47 39 25 38 33 17 30 43 25 39 43 23 35 42 20 32 48 25 35 50 23 32 51 24 31 64 34 42 71 35 35 78 47 45 73 45 44 76 56 55 63 52 50 40 34 34 38 38 38 28 32 33 24 30 30 26 30 33 32 31 36 41 36 40 51 40 46 60 43 51 64 43 50 65 42 50 54 45 46 28 5 31 23 5 31 23 9 34 23 13 37 22 14 37 27 24 43 21 18 35 10 9 23 11 11 23 12 12 22 12 12 22 20 20 28 12 19 25 14 21 27 18 25 31 25 32 38 31 38 44 33 38 44 29 32 37 25 26 30 39 39 41 34 30 29 28 20 18 31 20 16 47 32 25 62 43 36 63 43 32 58 36 25 43 27 37 37 21 31 29 13 23 28 15 25 39 25 38 50 36 49 48 34 47 39 25 38 33 17 30 43 25 39 43 23 35 42 20 32 48 25 35 50 23 32 51 24 31 64 34 42 71 35 35 78 47 45 73 45 44 76 56 55 63 52 50 40 34 34 38 38 38 28 32 33 24 30 30 26 30 33 32 31 36 41 36 40 51 40 46 60 43 51 64 43 50 65 42 50 54 45 46 28 5 31 23 5 31 23 9 34 23 13 37 22 14 37 27 24 43 21 18 35 10 9 23 11 11 23 12 12 22 12 12 22 20 20 28 12 19 25 14 21 27 18 25 31 25 32 38 31 38 44 33 38 44 29 32 37 25 26 30 39 39 41 34 30 29 28 20 18 31 20 16 47 32 25 62 43 36 63 43 32 58 36 25 43 27 37 37 21 31 29 13 23 28 15 25 39 25 38 50 36 49 48 34 47 39 25 38 33 17 30 43 25 39 43 23 35 42 20 32 48 25 35 50 23 32 51 24 31 64 34 42 71 35 35 78 47 45 73 45 44 76 56 55 63 52 50 40 34 34 38 38 38 28 32 33 24 30 30 26 30 33 32 31 36 41 36 40 51 40 46 60 43 51 64 43 50 65 42 50 54 45 46 28 5 31 23 5 31 23 9 34 23 13 37 22 14 37 27 24 43 21 18 35 10 9 23 11 11 23 12 12 22 12 12 22 20 20 28 12 19 25 14 21 27 18 25 31 25 32 38 31 38 44 33 38 44 29 32 37 25 26 30 39 39 41 34 30 29 28 20 18 31 20 16 47 32 25 62 43 36 63 43 32 58 36 25 43 27 37 37 21 31 29 13 23 28 15 25 39 25 38 50 36 49 48 34 47 39 25 38 33 17 30 43 25 39 43 23 35 42 20 32 48 25 35 50 23 32 51 24 31 64 34 42 71 35 35 78 47 45 73 45 44 76 56 55 63 52 50 40 34 34 38 38 38 28 32 33 24 30 30 26 30 33 32 31 36 41 36 40 51 40 46 60 43 51 64 43 50 65 42 50 54 45 46 28 5 31 23 5 31 23 9 34 23 13 37 22 14 37 27 24 43 21 18 35 10 9 23 11 11 23 12 12 22 12 12 22 20 20 28 12 19 25 14 21 27 18 25 31 25 32 38 31 38 44 33 38 44 29 32 37 25 26 30 39 39 41 34 30 29 28 20 18 31 20 16 47 32 25 62 43 36 63 43 32 58 36 25 43 27 37 37 21 31 29 13 23 28 15 25 39 25 38 50 36 49 48 34 47 39 25 38 33 17 30 43 25 39 43 23 35 42 20 32 48 25 35 50 23 32 51 24 31 64 34 42 71 35 35 78 47 45 73 45 44 76 56 55 63 52 50 40 34 34 38 38 38 28 32 33 24 30 30 26 30 33 32 31 36 41 36 40 51 40 46 60 43 51 64 43 50 65 42 50 54 45 46 28 5 31 23 5 31 23 9 34 23 13 37 22 14 37 27 24 43 21 18 35 10 9 23 11 11 23 12 12 22 12 12 22 20 20 28 12 19 25 14 21 27 18 25 31 25 32 38 31 38 44 33 38 44 29 32 37 25 26 30 39 39 41 34 30 29 28 20 18 31 20 16 47 32 25 62 43 36 63 43 32 58 36 25 43 27 37 37 21 31 29 13 23 28 15 25 39 25 38 50 36 49 48 34 47 39 25 38 33 17 30 43 25 39 43 23 35 42 20 32 48 25 35 50 23 32 51 24 31 64 34 42 71 35 35 78 47 45 73 45 44 76 56 55 63 52 50 40 34 34 38 38 38 28 32 33 24 30 30 26 30 33 32 31 36 41 36 40 51 40 46 60 43 51 64 43 50 65 42 50 54 45 46 28 5 31 23 5 31 23 9 34 23 13 37 22 14 37 27 24 43 21 18 35 10 9 23 11 11 23 12 12 22 12 12 22 20 20 28 12 19 25 14 21 27 18 25 31 25 32 38 31 38 44 33 38 44 29 32 37 25 26 30 39 39 41 34 30 29 28 20 18 31 20 16 47 32 25 62 43 36 63 43 32 58 36 25 43 27 37 37 21 31 29 13 23 28 15 25 39 25 38 50 36 49 48 34 47 39 25 38 33 17 30 43 25 39 43 23 35 42 20 32 48 25 35 50 23 32 51 24 31 64 34 42 71 35 35 78 47 45 73 45 44 76 56 55 63 52 50 40 34 34 38 38 38 28 32 33 24 30 30 26 30 33 32 31 36 41 36 40 51 40 46 60 43 51 64 43 50 65 42 50 54 45 46 28 5 31 23 5 31 23 9 34 23 13 37 22 14 37 27 24 43 21 18 35 10 9 23 11 11 23 12 12 22 12 12 22 20 20 28 12 19 25 14 21 27 18 25 31 25 32 38 31 38 44 33 38 44 29 32 37 25 26 30 39 39 41 34 30 29 28 20 18 31 20 16 47 32 25 62 43 36 63 43 32 58 36 25 43 27 37 37 21 31 29 13 23 28 15 25 39 25 38 50 36 49 48 34 47 39 25 38 33 17 30 43 25 39 43 23 35 42 20 32 48 25 35 50 23 32 51 24 31 64 34 42 71 35 35 78 47 45 73 45 44 76 56 55 63 52 50 40 34 34 38 38 38 28 32 33 24 30 30 26 30 33 32 31 36 41 36 40 51 40 46 60 43 51 64 43 50 65 42 50 54 45 46 28 5 31 23 5 31 23 9 34 23 13 37 22 14 37 27 24 43 21 18 35 10 9 23 11 11 23 12 12 22 12 12 22 20 20 28 12 19 25 14 21 27 18 25 31 25 32 38 31 38 44 33 38 44 29 32 37 25 26 30 39 39 41 34 30 29 28 20 18 31 20 16 47 32 25 62 43 36 63 43 32 58 36 25 43 27 37 37 21 31 29 13 23 28 15 25 39 25 38 50 36 49 48 34 47 39 25 38 33 17 30 43 25 39 43 23 35 42 20 32 48 25 35 50 23 32 51 24 31 64 34 42 71 35 35 78 47 45 73 45 44 76 56 55 63 52 50 40 34 34 38 38 38 28 32 33 24 30 30 26 30 33 32 31 36 41 36 40 51 40 46 60 43 51 64 43 50 65 42 50 54 45 46 28 5 31 23 5 31 23 9 34 23 13 37 22 14 37 27 24 43 21 18 35 10 9 23 11 11 23 12 12 22 12 12 22 20 20 28 12 19 25 14 21 27 18 25 31 25 32 38 31 38 44 33 38 44 29 32 37 25 26 30 39 39 41 34 30 29 28 20 18 31 20 16 47 32 25 62 43 36 63 43 32 58 36 25 43 27 37 37 21 31 29 13 23 28 15 25 39 25 38 50 36 49 48 34 47 39 25 38 33 17 30 43 25 39 43 23 35 42 20 32 48 25 35 50 23 32 51 24 31 64 34 42 71 35 35 78 47 45 73 45 44 76 56 55 63 52 50 40 34 34 38 38 38 28 32 33 24 30 30 26 30 33 32 31 36 41 36 40 51 40 46 60 43 51 64 43 50 65 42 50 54 45 46 28 5 31 23 5 31 23 9 34 23 13 37 22 14 37 27 24 43 21 18 35 10 9 23 11 11 23 12 12 22 12 12 22 20 20 28 12 19 25 14 21 27 18 25 31 25 32 38 31 38 44 33 38 44 29 32 37 25 26 30 39 39 41 34 30 29 28 20 18 31 20 16 47 32 25 62 43 36 63 43 32 58 36 25 43 27 37 37 21 31 29 13 23 28 15 25 39 25 38 50 36 49 48 34 47 39 25 38 33 17 30 43 25 39 43 23 35 42 20 32 48 25 35 50 23 32 51 24 31 64 34 42 71 35 35 78 47 45 73 45 44 76 56 55 63 52 50 40 34 34 38 38 38 28 32 33 24 30 30 26 30 33 32 31 36 41 36 40 51 40 46 60 43 51 64 43 50 65 42 50 54 45 46 28 5 31 23 5 31 23 9 34 23 13 37 22 14 37 27 24 43 21 18 35 10 9 23 11 11 23 12 12 22 12 12 22 20 20 28 12 19 25 14 21 27 18 25 31 25 32 38 31 38 44 33 38 44 29 32 37 25 26 30 39 39 41 34 30 29 28 20 18 31 20 16 47 32 25 62 43 36 63 43 32 58 36 25 43 27 37 37 21 31 29 13 23 28 15 25 39 25 38 50 36 49 48 34 47 39 25 38 33 17 30 43 25 39 43 23 35 42 20 32 48 25 35 50 23 32 51 24 31 64 34 42 71 35 35 78 47 45 73 45 44 76 56 55 63 52 50 40 34 34 38 38 38 28 32 33 24 30 30 26 30 33 32 31 36 41 36 40 51 40 46 60 43 51 64 43 50 65 42 50 54 45 46 28 5 31 23 5 31 23 9 34 23 13 37 22 14 37 27 24 43 21 18 35 10 9 23 11 11 23 12 12 22 12 12 22 20 20 28 12 19 25 14 21 27 18 25 31 25 32 38 31 38 44 33 38 44 29 32 37 25 26 30 39 39 41 34 30 29 28 20 18 31 20 16 47 32 25 62 43 36 63 43 32 58 36 25 43 27 37 37 21 31 29 13 23 28 15 25 39 25 38 50 36 49 48 34 47 39 25 38 33 17 30 43 25 39 43 23 35 42 20 32 48 25 35 50 23 32 51 24 31 64 34 42 71 35 35 78 47 45 73 45 44 76 56 55 63 52 50 40 34 34 38 38 38 28 32 33 24 30 30 26 30 33 32 31 36 41 36 40 51 40 46 60 43 51 64 43 50 65 42 50 54 45 46 28 5 31 23 5 31 23 9 34 23 13 37 22 14 37 27 24 43 21 18 35 10 9 23 11 11 23 12 12 22 12 12 22 20 20 28 12 19 25 14 21 27 18 25 31 25 32 38 31 38 44 33 38 44 29 32 37 25 26 30 39 39 41 34 30 29 28 20 18 31 20 16 47 32 25 62 43 36 63 43 32 58 36 25 43 27 37 37 21 31 29 13 23 28 15 25 39 25 38 50 36 49 48 34 47 39 25 38 33 17 30 43 25 39 43 23 35 42 20 32 48 25 35 50 23 32 51 24 31 64 34 42 71 35 35 78 47 45 73 45 44 76 56 55 63 52 50 40 34 34 38 38 38 28 32 33 24 30 30 26 30 33 32 31 36 41 36 40 51 40 46 60 43 51 64 43 50 65 42 50 54 45 46 28 5 31 23 5 31 23 9 34 23 13 37 22 14 37 27 24 43 21 18 35 10 9 23 11 11 23 12 12 22 12 12 22 20 20 28 12 19 25 14 21 27 18 25 31 25 32 38 31 38 44 33 38 44 29 32 37 25 26 30 39 39 41 34 30 29 28 20 18 31 20 16 47 32 25 62 43 36 63 43 32 58 36 25 43 27 37 37 21 31 29 13 23 28 15 25 39 25 38 50 36 49 48 34 47 39 25 38 33 17 30 43 25 39 43 23 35 42 20 32 48 25 35 50 23 32 51 24 31 64 34 42 71 35 35 78 47 45 73 45 44 76 56 55 63 52 50 40 34 34 38 38 38 28 32 33 24 30 30 26 30 33 32 31 36 41 36 40 51 40 46 60 43 51 64 43 50 65 42 50 54 45 46 28 5 31 23 5 31 23 9 34 23 13 37 22 14 37 27 24 43 21 18 35 10 9 23 11 11 23 12 12 22 12 12 22 20 20 28 12 19 25 14 21 27 18 25 31 25 32 38 31 38 44 33 38 44 29 32 37 25 26 30 39 39 41 34 30 29 28 20 18 31 20 16 47 32 25 62 43 36 63 43 32 58 36 25 43 27 37 37 21 31 29 13 23 28 15 25 39 25 38 50 36 49 48 34 47 39 25 38 33 17 30 43 25 39 43 23 35 42 20 32 48 25 35 50 23 32 51 24 31 64 34 42 71 35 35 78 47 45 73 45 44 76 56 55 63 52 50 40 34 34 38 38 38 28 32 33 24 30 30 26 30 33 32 31 36 41 36 40 51 40 46 60 43 51 64 43 50 65 42 50 54 45 46 28 5 31 23 5 31 23 9 34 23 13 37 22 14 37 27 24 43 21 18 35 10 9 23 11 11 23 12 12 22 12 12 22 20 20 28 12 19 25 14 21 27 18 25 31 25 32 38 31 38 44 33 38 44 29 32 37 25 26 30 39 39 41 34 30 29 28 20 18 31 20 16 47 32 25 62 43 36 63 43 32 58 36 25 43 27 37 37 21 31 29 13 23 28 15 25 39 25 38 50 36 49 48 34 47 39 25 38 33 17 30 43 25 39 43 23 35 42 20 32 48 25 35 50 23 32 51 24 31 64 34 42 71 35 35 78 47 45 73 45 44 76 56 55 63 52 50 40 34 34 38 38 38 28 32 33 24 30 30 26 30 33 32 31 36 41 36 40 51 40 46 60 43 51 64 43 50 65 42 50 54 45 46 28 5 31 23 5 31 23 9 34 23 13 37 22 14 37 27 24 43 21 18 35 10 9 23 11 11 23 12 12 22 12 12 22 20 20 28 12 19 25 14 21 27 18 25 31 25 32 38 31 38 44 33 38 44 29 32 37 25 26 30 39 39 41 34 30 29 28 20 18 31 20 16 47 32 25 62 43 36 63 43 32 58 36 25 43 27 37 37 21 31 29 13 23 28 15 25 39 25 38 50 36 49 48 34 47 39 25 38 33 17 30 43 25 39 43 23 35 42 20 32 48 25 35 50 23 32 51 24 31 64 34 42 71 35 35 78 47 45 73 45 44 76 56 55 63 52 50 40 34 34 38 38 38 28 32 33 24 30 30 26 30 33 32 31 36 41 36 40 51 40 46 60 43 51 64 43 50 65 42 50 54 45 46 28 5 31 23 5 31 23 9 34 23 13 37 22 14 37 27 24 43 21 18 35 10 9 23 11 11 23 12 12 22 12 12 22 20 20 28 12 19 25 14 21 27 18 25 31 25 32 38 31 38 44 33 38 44 29 32 37 25 26 30 39 39 41 34 30 29 28 20 18 31 20 16 47 32 25 62 43 36 63 43 32 58 36 25 43 27 37 37 21 31 29 13 23 28 15 25 39 25 38 50 36 49 48 34 47 39 25 38 33 17 30 43 25 39 43 23 35 42 20 32 48 25 35 50 23 32 51 24 31 64 34 42 71 35 35 78 47 45 73 45 44 76 56 55 63 52 50 40 34 34 38 38 38 28 32 33 24 30 30 26 30 33 32 31 36 41 36 40 51 40 46 60 43 51 64 43 50 65 42 50 54 45 46 28 5 31 23 5 31 23 9 34 23 13 37 22 14 37 27 24 43 21 18 35 10 9 23 11 11 23 12 12 22 12 12 22 20 20 28 12 19 25 14 21 27 18 25 31 25 32 38 31 38 44 33 38 44 29 32 37 25 26 30 39 39 41 34 30 29 28 20 18 31 20 16 47 32 25 62 43 36 63 43 32 58 36 25 43 27 37 37 21 31 29 13 23 28 15 25 39 25 38 50 36 49 48 34 47 39 25 38 33 17 30 43 25 39 43 23 35 42 20 32 48 25 35 50 23 32 51 24 31 64 34 42 71 35 35 78 47 45 73 45 44 76 56 55 63 52 50 40 34 34 38 38 38 28 32 33 24 30 30 26 30 33 32 31 36 41 36 40 51 40 46 60 43 51 64 43 50 65 42 50 54 45 46 28 5 31 23 5 31 23 9 34 23 13 37 22 14 37 27 24 43 21 18 35 10 9 23 11 11 23 12 12 22 12 12 22 20 20 28 12 19 25 14 21 27 18 25 31 25 32 38 31 38 44 33 38 44 29 32 37 25 26 30 39 39 41 34 30 29 28 20 18 31 20 16 47 32 25 62 43 36 63 43 32 58 36 25 43 27 37 37 21 31 29 13 23 28 15 25 39 25 38 50 36 49 48 34 47 39 25 38 33 17 30 43 25 39 43 23 35 42 20 32 48 25 35 50 23 32 51 24 31 64 34 42 71 35 35 78 47 45 73 45 44 76 56 55 63 52 50 40 34 34 38 38 38 28 32 33 24 30 30 26 30 33 32 31 36 41 36 40 51 40 46 60 43 51 64 43 50 65 42 50 54 45 46 28 5 31 23 5 31 23 9 34 23 13 37 22 14 37 27 24 43 21 18 35 10 9 23 11 11 23 12 12 22 12 12 22 20 20 28 12 19 25 14 21 27 18 25 31 25 32 38 31 38 44 33 38 44 29 32 37 25 26 30 39 39 41 34 30 29 28 20 18 31 20 16 47 32 25 62 43 36 63 43 32 58 36 25 43 27 37 37 21 31 29 13 23 28 15 25 39 25 38 50 36 49 48 34 47 39 25 38 33 17 30 43 25 39 43 23 35 42 20 32 48 25 35 50 23 32 51 24 31 64 34 42 71 35 35 78 47 45 73 45 44 76 56 55 63 52 50 40 34 34 38 38 38 28 32 33 24 30 30 26 30 33 32 31 36 41 36 40 51 40 46 60 43 51 64 43 50 65 42 50 54 45 46 28 5 31 23 5 31 23 9 34 23 13 37 22 14 37 27 24 43 21 18 35 10 9 23 11 11 23 12 12 22 12 12 22 20 20 28 12 19 25 14 21 27 18 25 31 25 32 38 31 38 44 33 38 44 29 32 37 25 26 30 39 39 41 34 30 29 28 20 18 31 20 16 47 32 25 62 43 36 63 43 32 58 36 25 43 27 37 37 21 31 29 13 23 28 15 25 39 25 38 50 36 49 48 34 47 39 25 38 33 17 30 43 25 39 43 23 35 42 20 32 48 25 35 50 23 32 51 24 31 64 34 42 71 35 35 78 47 45 73 45 44 76 56 55 63 52 50 40 34 34 38 38 38 28 32 33 24 30 30 26 30 33 32 31 36 41 36 40 51 40 46 60 43 51 64 43 50 65 42 50 54 45 46 28 5 31 23 5 31 23 9 34 23 13 37 22 14 37 27 24 43 21 18 35 10 9 23 11 11 23 12 12 22 12 12 22 20 20 28 12 19 25 14 21 27 18 25 31 25 32 38 31 38 44 33 38 44 29 32 37 25 26 30 39 39 41 34 30 29 28 20 18 31 20 16 47 32 25 62 43 36 63 43 32 58 36 25 43 27 37 37 21 31 29 13 23 28 15 25 39 25 38 50 36 49 48 34 47 39 25 38 33 17 30 43 25 39 43 23 35 42 20 32 48 25 35 50 23 32 51 24 31 64 34 42 71 35 35 78 47 45 73 45 44 76 56 55 63 52 50 40 34 34 38 38 38 28 32 33 24 30 30 26 30 33 32 31 36 41 36 40 51 40 46 60 43 51 64 43 50 65 42 50 54 45 46 28 5 31 23 5 31 23 9 34 23 13 37 22 14 37 27 24 43 21 18 35 10 9 23 11 11 23 12 12 22 12 12 22 20 20 28 12 19 25 14 21 27 18 25 31 25 32 38 31 38 44 33 38 44 29 32 37 25 26 30 39 39 41 34 30 29 28 20 18 31 20 16 47 32 25 62 43 36 63 43 32 58 36 25 43 27 37 37 21 31 29 13 23 28 15 25 39 25 38 50 36 49 48 34 47 39 25 38 33 17 30 43 25 39 43 23 35 42 20 32 48 25 35 50 23 32 51 24 31 64 34 42 71 35 35 78 47 45 73 45 44 76 56 55 63 52 50 40 34 34 38 38 38 28 32 33 24 30 30 26 30 33 32 31 36 41 36 40 51 40 46 60 43 51 64 43 50 65 42 50 54 45 46 28 5 31 23 5 31 23 9 34 23 13 37 22 14 37 27 24 43 21 18 35 10 9 23 11 11 23 12 12 22 12 12 22 20 20 28 12 19 25 14 21 27 18 25 31 25 32 38 31 38 44 33 38 44 29 32 37 25 26 30 39 39 41 34 30 29 28 20 18 31 20 16 47 32 25 62 43 36 63 43 32 58 36 25 43 27 37 37 21 31 29 13 23 28 15 25 39 25 38 50 36 49 48 34 47 39 25 38 33 17 30 43 25 39 43 23 35 42 20 32 48 25 35 50 23 32 51 24 31 64 34 42 71 35 35 78 47 45 73 45 44 76 56 55 63 52 50 40 34 34 38 38 38 28 32 33 24 30 30 26 30 33 32 31 36 41 36 40 51 40 46 60 43 51 64 43 50 65 42 50 54 45 46 28 5 31 23 5 31 23 9 34 23 13 37 22 14 37 27 24 43 21 18 35 10 9 23 11 11 23 12 12 22 12 12 22 20 20 28 12 19 25 14 21 27 18 25 31 25 32 38 31 38 44 33 38 44 29 32 37 25 26 30 39 39 41 34 30 29 28 20 18 31 20 16 47 32 25 62 43 36 63 43 32 58 36 25 43 27 37 37 21 31 29 13 23 28 15 25 39 25 38 50 36 49 48 34 47 39 25 38 33 17 30 43 25 39 43 23 35 42 20 32 48 25 35 50 23 32 51 24 31 64 34 42 71 35 35 78 47 45 73 45 44 76 56 55 63 52 50 40 34 34 38 38 38 28 32 33 24 30 30 26 30 33 32 31 36 41 36 40 51 40 46 60 43 51 64 43 50 65 42 50 54 45 46 28 5 31 23 5 31 23 9 34 23 13 37 22 14 37 27 24 43 21 18 35 10 9 23 11 11 23 12 12 22 12 12 22 20 20 28 12 19 25 14 21 27 18 25 31 25 32 38 31 38 44 33 38 44 29 32 37 25 26 30 39 39 41 34 30 29 28 20 18 31 20 16 47 32 25 62 43 36 63 43 32 58 36 25 43 27 37 37 21 31 29 13 23 28 15 25 39 25 38 50 36 49 48 34 47 39 25 38 33 17 30 43 25 39 43 23 35 42 20 32 48 25 35 50 23 32 51 24 31 64 34 42 71 35 35 78 47 45 73 45 44 76 56 55 63 52 50 40 34 34 38 38 38 28 32 33 24 30 30 26 30 33 32 31 36 41 36 40 51 40 46 60 43 51 64 43 50 65 42 50 54 45 46 28 5 31 23 5 31 23 9 34 23 13 37 22 14 37 27 24 43 21 18 35 10 9 23 11 11 23 12 12 22 12 12 22 20 20 28 12 19 25 14 21 27 18 25 31 25 32 38 31 38 44 33 38 44 29 32 37 25 26 30 39 39 41 34 30 29 28 20 18 31 20 16 47 32 25 62 43 36 63 43 32 58 36 25 43 27 37 37 21 31 29 13 23 28 15 25 39 25 38 50 36 49 48 34 47 39 25 38 33 17 30 43 25 39 43 23 35 42 20 32 48 25 35 50 23 32 51 24 31 64 34 42 71 35 35 78 47 45 73 45 44 76 56 55 63 52 50 40 34 34 38 38 38 28 32 33 24 30 30 26 30 33 32 31 36 41 36 40 51 40 46 60 43 51 64 43 50 65 42 50 54 45 46 28 5 31 23 5 31 23 9 34 23 13 37 22 14 37 27 24 43 21 18 35 10 9 23 11 11 23 12 12 22 12 12 22 20 20 28 12 19 25 14 21 27 18 25 31 25 32 38 31 38 44 33 38 44 29 32 37 25 26 30 39 39 41 34 30 29 28 20 18 31 20 16 47 32 25 62 43 36 63 43 32 58 36 25 43 27 37 37 21 31 29 13 23 28 15 25 39 25 38 50 36 49 48 34 47 39 25 38 33 17 30 43 25 39 43 23 35 42 20 32 48 25 35 50 23 32 51 24 31 64 34 42 71 35 35 78 47 45 73 45 44 76 56 55 63 52 50 40 34 34 38 38 38 28 32 33 24 30 30 26 30 33 32 31 36 41 36 40 51 40 46 60 43 51 64 43 50 65 42 50 54 45 46 28 5 31 23 5 31 23 9 34 23 13 37 22 14 37 27 24 43 21 18 35 10 9 23 11 11 23 12 12 22 12 12 22 20 20 28 12 19 25 14 21 27 18 25 31 25 32 38 31 38 44 33 38 44 29 32 37 25 26 30 39 39 41 34 30 29 28 20 18 31 20 16 47 32 25 62 43 36 63 43 32 58 36 25 43 27 37 37 21 31 29 13 23 28 15 25 39 25 38 50 36 49 48 34 47 39 25 38 33 17 30 43 25 39 43 23 35 42 20 32 48 25 35 50 23 32 51 24 31 64 34 42 71 35 35 78 47 45 73 45 44 76 56 55 63 52 50 40 34 34 38 38 38 28 32 33 24 30 30 26 30 33 32 31 36 41 36 40 51 40 46 60 43 51 64 43 50 65 42 50 54 45 46
